<svg width="67" height="62" viewBox="0 0 67 62" fill="none" xmlns="http://www.w3.org/2000/svg">
<g clip-path="url(#clip0_468_4903)">
<path d="M43.906 46.8679C56.4357 46.8679 66.5931 36.5695 66.5931 23.8658C66.5931 11.1621 56.4357 0.863647 43.906 0.863647C31.3763 0.863647 21.219 11.1621 21.219 23.8658C21.219 36.5695 31.3763 46.8679 43.906 46.8679Z" fill="#D6BC97"/>
<path d="M3.84142 57.9109C3.64804 57.9098 3.46101 57.8417 3.31217 57.7183C3.16332 57.5948 3.06186 57.4236 3.02505 57.2338C2.98825 57.0439 3.01837 56.8472 3.1103 56.6771C3.20222 56.5069 3.35027 56.3739 3.52924 56.3007C3.7082 56.2274 3.90703 56.2184 4.09186 56.2753C4.2767 56.3321 4.43612 56.4513 4.54299 56.6124C4.64986 56.7736 4.69758 56.9668 4.67802 57.1592C4.65845 57.3516 4.57282 57.5313 4.43569 57.6676C4.35755 57.7453 4.26482 57.8068 4.16284 57.8486C4.06085 57.8903 3.95162 57.9115 3.84142 57.9109Z" fill="black"/>
<path d="M8.25461 61.4028H0.521484V59.4032H6.25311V49.141H0.521484V47.1389H8.25461V61.4028Z" fill="black"/>
<path d="M20.13 59.3597H9.58496V49.2041L9.70344 48.9829C10.3535 47.8427 11.3297 46.9229 12.5065 46.3418C13.6108 45.8105 14.815 45.5191 16.04 45.4865C17.265 45.4539 18.4829 45.6809 19.6139 46.1527C20.3419 46.4502 21.0524 46.7887 21.7421 47.1667C22.3092 47.4641 22.8449 47.7452 23.3988 47.9796C23.632 48.0651 23.8708 48.1343 24.1135 48.187C24.9504 48.3937 26.0973 48.676 26.5713 49.7543C26.8414 50.445 26.9446 51.1897 26.8725 51.9278L31.9065 51.8534L34.5205 48.9583C34.7572 48.6795 35.0473 48.4509 35.3738 48.2861C35.7004 48.1214 36.0566 48.0238 36.4215 47.9991C36.7864 47.9744 37.1526 48.0232 37.4983 48.1425C37.844 48.2618 38.1623 48.4493 38.4343 48.6938C38.7063 48.9383 38.9265 49.2348 39.0819 49.5659C39.2373 49.897 39.3247 50.2559 39.3389 50.6213C39.3532 50.9868 39.294 51.3514 39.1649 51.6935C39.0358 52.0357 38.8393 52.3485 38.5872 52.6135L34.6453 57.0154L20.13 59.3597ZM11.5871 57.3576H19.9687L33.6269 55.1519L37.093 51.2831C37.2178 51.1379 37.2807 50.9495 37.2684 50.7584C37.2561 50.5674 37.1695 50.3887 37.0271 50.2606C36.8848 50.1326 36.6979 50.0653 36.5066 50.0733C36.3153 50.0812 36.1347 50.1637 36.0034 50.3032L32.8045 53.8455L20.4092 54.0283L20.3796 52.0267L24.8628 51.9606C24.9248 51.4904 24.8817 51.0124 24.7368 50.5609C24.6605 50.387 23.9931 50.2225 23.6352 50.1336C23.2895 50.058 22.9502 49.9554 22.6206 49.8267C21.9904 49.5602 21.3917 49.2463 20.8132 48.9445C20.19 48.6019 19.548 48.2945 18.8904 48.0237C18.0241 47.6545 17.0895 47.4725 16.148 47.4896C15.2064 47.5066 14.279 47.7224 13.4266 48.1227C12.6859 48.4905 12.0526 49.0434 11.5884 49.7278L11.5871 57.3576Z" fill="black"/>
<path d="M40.5194 25.8724V23.7442L34.1437 21.4043L21.8284 27.7359H11.2008V42.6356H35.6001V38.4133C35.9322 38.4253 36.2599 38.4372 36.58 38.4612C36.7798 38.4731 36.9802 38.4813 37.18 38.4813C38.319 38.4726 39.4483 38.271 40.52 37.8852V35.7425L40.4923 35.7545C39.3056 36.286 38.0097 36.5285 36.7111 36.4622C36.3469 36.4382 35.9788 36.4225 35.5995 36.4099C34.9598 36.3941 34.2994 36.3979 33.5998 36.4219C32.6356 36.454 31.604 36.5296 30.476 36.6456L29.2439 36.7716C28.9421 36.8031 28.6398 36.7161 28.401 36.5289C28.1621 36.3418 28.0053 36.0691 27.9638 35.7685C27.9222 35.4679 27.9991 35.1629 28.1783 34.9179C28.3574 34.6729 28.6247 34.5072 28.9238 34.4556L33.5872 33.6477C33.5894 33.648 33.5916 33.6479 33.5937 33.6472C33.5957 33.6466 33.5976 33.6454 33.5992 33.644C34.0082 33.5747 34.3979 33.4198 34.7427 33.1893C35.0875 32.9589 35.3797 32.6581 35.6001 32.3067C35.8837 31.8556 36.0413 31.3367 36.0566 30.8041C36.0718 30.2715 35.9442 29.7445 35.6869 29.2779C35.4297 28.8112 35.0521 28.422 34.5936 28.1506C34.135 27.8792 33.6122 27.7356 33.0793 27.7346H26.1995L34.2798 23.5841L40.5194 25.8724ZM33.0799 29.7361C33.2639 29.7343 33.4445 29.7857 33.5998 29.8842C33.7407 29.9731 33.8567 30.0962 33.9372 30.242C34.0176 30.3879 34.0598 30.5517 34.0598 30.7183C34.0598 30.8848 34.0176 31.0487 33.9372 31.1945C33.8567 31.3403 33.7407 31.4635 33.5998 31.5523C33.4923 31.6191 33.3725 31.6638 33.2476 31.684L28.5841 32.492C27.801 32.6259 27.0968 33.0492 26.6111 33.6778C26.1253 34.3065 25.8934 35.0947 25.9614 35.8862C26.0293 36.6778 26.3921 37.4149 26.9779 37.9516C27.5637 38.4882 28.3297 38.7853 29.1242 38.7838C29.2311 38.7845 29.338 38.7792 29.4443 38.7681C29.4443 38.7681 32.6999 38.4643 33.6005 38.4322V40.6379H13.2004V29.7355L33.0799 29.7361Z" fill="black"/>
<path d="M24.5301 34.1859H22.5305V36.1855H24.5301V34.1859Z" fill="black"/>
</g>
<defs>
<clipPath id="clip0_468_4903">
<rect width="66.0716" height="60.5385" fill="white" transform="translate(0.521484 0.863647)"/>
</clipPath>
</defs>
</svg>
