<svg width="64" height="59" viewBox="0 0 64 59" fill="none" xmlns="http://www.w3.org/2000/svg">
<g clip-path="url(#clip0_468_4924)">
<path d="M41.5261 44.6302C53.8195 44.6302 63.7852 34.6644 63.7852 22.3711C63.7852 10.0777 53.8195 0.111938 41.5261 0.111938C29.2327 0.111938 19.267 10.0777 19.267 22.3711C19.267 34.6644 29.2327 44.6302 41.5261 44.6302Z" fill="#D6BC97"/>
<path d="M11.1275 45.7187C11.7532 45.7187 12.2605 45.2114 12.2605 44.5857C12.2605 43.9599 11.7532 43.4526 11.1275 43.4526C10.5017 43.4526 9.99438 43.9599 9.99438 44.5857C9.99438 45.2114 10.5017 45.7187 11.1275 45.7187Z" fill="black"/>
<path d="M37.8652 19.989H12.4685V32.6432H0.255249V58.0393H25.652V45.3852H37.8652V19.989ZM35.8881 25.4001L25.652 35.6363V32.6432H21.8875L32.4761 22.0545L32.3877 21.9661H35.8875L35.8881 25.4001ZM23.6749 45.3223C21.9783 45.0369 19.345 44.7156 18.3961 47.9074C17.89 49.615 16.5184 51.5714 15.4165 53.1454C14.7175 54.054 14.1131 55.0315 13.6126 56.0628H10.481C10.4742 54.5484 10.9735 53.0752 11.8995 51.8769C12.3326 51.3878 12.835 50.9648 13.3906 50.6212C14.6749 49.7327 16.2733 48.6277 16.763 45.4943C17.0962 43.6015 16.8654 41.6526 16.0995 39.8899C15.3908 38.23 15.1463 36.4089 15.3921 34.6209H18.2876C18.3693 35.0246 18.4388 35.4423 18.5126 35.8845C18.9273 38.3848 19.4432 41.4907 22.7632 43.1989C22.9461 43.2946 23.0681 43.3605 23.1468 43.405C23.2945 43.5586 23.475 43.6768 23.6749 43.7508V45.3223ZM7.60808 47.0799C7.50444 46.072 7.57061 45.0539 7.80384 44.0679C8.08446 43.0837 8.54289 42.1592 9.15646 41.3401C10.5855 39.391 11.3547 37.0365 11.3519 34.6197H13.4058C13.1695 36.6423 13.458 38.6917 14.2437 40.5705C14.8899 42.0185 15.0871 43.627 14.8097 45.1882C14.4511 47.483 13.4388 48.1831 12.266 48.9942C11.5493 49.4429 10.905 49.9981 10.3554 50.6407C9.14766 52.1889 8.49537 54.0981 8.50332 56.0616H6.43841C7.81299 51.2268 7.70017 48.9381 7.60808 47.0799ZM23.6749 41.4438L23.6676 41.4401C21.2282 40.1863 20.8574 37.939 20.4629 35.5594C20.4117 35.2496 20.3568 34.9337 20.2988 34.6197H23.6749V41.4438ZM14.4456 30.8935L23.373 21.9661H29.7684L19.0901 32.6432H14.4456V30.8935ZM20.5769 21.9661L14.4456 28.0974V21.9661H20.5769ZM5.30411 34.6203C4.83966 36.3705 4.22216 38.0765 3.45873 39.7185C3.05624 40.676 2.63606 41.6755 2.23235 42.7116V34.6203H5.30411ZM2.23235 49.7095C2.7812 46.4359 4.10699 43.2757 5.28154 40.4857C6.2207 38.2531 7.05008 36.2735 7.31109 34.6203H9.37417C9.37704 36.6471 8.72364 38.6203 7.51172 40.2448C6.77396 41.2461 6.22469 42.3734 5.89077 43.5715C5.60526 44.7508 5.51849 45.9696 5.63403 47.1775C5.72185 48.9558 5.8304 51.1585 4.3802 56.0616H2.23235V49.7095ZM15.8318 56.0622C16.1708 55.5097 16.6428 54.8352 17.0325 54.2784C18.2168 52.5874 19.6902 50.4822 20.2879 48.4697C20.7324 46.972 21.5331 46.961 23.5401 47.3049L23.6719 47.3275V56.0622H15.8318ZM25.6502 38.4318L35.8881 28.1956V34.8587L27.3388 43.4081H25.652V38.4318H25.6502ZM30.1331 43.4081L35.8869 37.6548V43.4081H30.1331Z" fill="black"/>
<path d="M11.1275 45.7187C11.7532 45.7187 12.2605 45.2114 12.2605 44.5857C12.2605 43.9599 11.7532 43.4526 11.1275 43.4526C10.5017 43.4526 9.99438 43.9599 9.99438 44.5857C9.99438 45.2114 10.5017 45.7187 11.1275 45.7187Z" fill="black"/>
<path d="M37.8652 19.989H12.4685V32.6432H0.255249V58.0393H25.652V45.3852H37.8652V19.989ZM35.8881 25.4001L25.652 35.6363V32.6432H21.8875L32.4761 22.0545L32.3877 21.9661H35.8875L35.8881 25.4001ZM23.6749 45.3223C21.9783 45.0369 19.345 44.7156 18.3961 47.9074C17.89 49.615 16.5184 51.5714 15.4165 53.1454C14.7175 54.054 14.1131 55.0315 13.6126 56.0628H10.481C10.4742 54.5484 10.9735 53.0752 11.8995 51.8769C12.3326 51.3878 12.835 50.9648 13.3906 50.6212C14.6749 49.7327 16.2733 48.6277 16.763 45.4943C17.0962 43.6015 16.8654 41.6526 16.0995 39.8899C15.3908 38.23 15.1463 36.4089 15.3921 34.6209H18.2876C18.3693 35.0246 18.4388 35.4423 18.5126 35.8845C18.9273 38.3848 19.4432 41.4907 22.7632 43.1989C22.9461 43.2946 23.0681 43.3605 23.1468 43.405C23.2945 43.5586 23.475 43.6768 23.6749 43.7508V45.3223ZM7.60808 47.0799C7.50444 46.072 7.57061 45.0539 7.80384 44.0679C8.08446 43.0837 8.54289 42.1592 9.15646 41.3401C10.5855 39.391 11.3547 37.0365 11.3519 34.6197H13.4058C13.1695 36.6423 13.458 38.6917 14.2437 40.5705C14.8899 42.0185 15.0871 43.627 14.8097 45.1882C14.4511 47.483 13.4388 48.1831 12.266 48.9942C11.5493 49.4429 10.905 49.9981 10.3554 50.6407C9.14766 52.1889 8.49537 54.0981 8.50332 56.0616H6.43841C7.81299 51.2268 7.70017 48.9381 7.60808 47.0799ZM23.6749 41.4438L23.6676 41.4401C21.2282 40.1863 20.8574 37.939 20.4629 35.5594C20.4117 35.2496 20.3568 34.9337 20.2988 34.6197H23.6749V41.4438ZM14.4456 30.8935L23.373 21.9661H29.7684L19.0901 32.6432H14.4456V30.8935ZM20.5769 21.9661L14.4456 28.0974V21.9661H20.5769ZM5.30411 34.6203C4.83966 36.3705 4.22216 38.0765 3.45873 39.7185C3.05624 40.676 2.63606 41.6755 2.23235 42.7116V34.6203H5.30411ZM2.23235 49.7095C2.7812 46.4359 4.10699 43.2757 5.28154 40.4857C6.2207 38.2531 7.05008 36.2735 7.31109 34.6203H9.37417C9.37704 36.6471 8.72364 38.6203 7.51172 40.2448C6.77396 41.2461 6.22469 42.3734 5.89077 43.5715C5.60526 44.7508 5.51849 45.9696 5.63403 47.1775C5.72185 48.9558 5.8304 51.1585 4.3802 56.0616H2.23235V49.7095ZM15.8318 56.0622C16.1708 55.5097 16.6428 54.8352 17.0325 54.2784C18.2168 52.5874 19.6902 50.4822 20.2879 48.4697C20.7324 46.972 21.5331 46.961 23.5401 47.3049L23.6719 47.3275V56.0622H15.8318ZM25.6502 38.4318L35.8881 28.1956V34.8587L27.3388 43.4081H25.652V38.4318H25.6502ZM30.1331 43.4081L35.8869 37.6548V43.4081H30.1331Z" fill="black"/>
<path d="M11.1275 45.7187C11.7532 45.7187 12.2605 45.2114 12.2605 44.5857C12.2605 43.9599 11.7532 43.4526 11.1275 43.4526C10.5017 43.4526 9.99438 43.9599 9.99438 44.5857C9.99438 45.2114 10.5017 45.7187 11.1275 45.7187Z" fill="black"/>
<path d="M37.8652 19.989H12.4685V32.6432H0.255249V58.0393H25.652V45.3852H37.8652V19.989ZM35.8881 25.4001L25.652 35.6363V32.6432H21.8875L32.4761 22.0545L32.3877 21.9661H35.8875L35.8881 25.4001ZM23.6749 45.3223C21.9783 45.0369 19.345 44.7156 18.3961 47.9074C17.89 49.615 16.5184 51.5714 15.4165 53.1454C14.7175 54.054 14.1131 55.0315 13.6126 56.0628H10.481C10.4742 54.5484 10.9735 53.0752 11.8995 51.8769C12.3326 51.3878 12.835 50.9648 13.3906 50.6212C14.6749 49.7327 16.2733 48.6277 16.763 45.4943C17.0962 43.6015 16.8654 41.6526 16.0995 39.8899C15.3908 38.23 15.1463 36.4089 15.3921 34.6209H18.2876C18.3693 35.0246 18.4388 35.4423 18.5126 35.8845C18.9273 38.3848 19.4432 41.4907 22.7632 43.1989C22.9461 43.2946 23.0681 43.3605 23.1468 43.405C23.2945 43.5586 23.475 43.6768 23.6749 43.7508V45.3223ZM7.60808 47.0799C7.50444 46.072 7.57061 45.0539 7.80384 44.0679C8.08446 43.0837 8.54289 42.1592 9.15646 41.3401C10.5855 39.391 11.3547 37.0365 11.3519 34.6197H13.4058C13.1695 36.6423 13.458 38.6917 14.2437 40.5705C14.8899 42.0185 15.0871 43.627 14.8097 45.1882C14.4511 47.483 13.4388 48.1831 12.266 48.9942C11.5493 49.4429 10.905 49.9981 10.3554 50.6407C9.14766 52.1889 8.49537 54.0981 8.50332 56.0616H6.43841C7.81299 51.2268 7.70017 48.9381 7.60808 47.0799ZM23.6749 41.4438L23.6676 41.4401C21.2282 40.1863 20.8574 37.939 20.4629 35.5594C20.4117 35.2496 20.3568 34.9337 20.2988 34.6197H23.6749V41.4438ZM14.4456 30.8935L23.373 21.9661H29.7684L19.0901 32.6432H14.4456V30.8935ZM20.5769 21.9661L14.4456 28.0974V21.9661H20.5769ZM5.30411 34.6203C4.83966 36.3705 4.22216 38.0765 3.45873 39.7185C3.05624 40.676 2.63606 41.6755 2.23235 42.7116V34.6203H5.30411ZM2.23235 49.7095C2.7812 46.4359 4.10699 43.2757 5.28154 40.4857C6.2207 38.2531 7.05008 36.2735 7.31109 34.6203H9.37417C9.37704 36.6471 8.72364 38.6203 7.51172 40.2448C6.77396 41.2461 6.22469 42.3734 5.89077 43.5715C5.60526 44.7508 5.51849 45.9696 5.63403 47.1775C5.72185 48.9558 5.8304 51.1585 4.3802 56.0616H2.23235V49.7095ZM15.8318 56.0622C16.1708 55.5097 16.6428 54.8352 17.0325 54.2784C18.2168 52.5874 19.6902 50.4822 20.2879 48.4697C20.7324 46.972 21.5331 46.961 23.5401 47.3049L23.6719 47.3275V56.0622H15.8318ZM25.6502 38.4318L35.8881 28.1956V34.8587L27.3388 43.4081H25.652V38.4318H25.6502ZM30.1331 43.4081L35.8869 37.6548V43.4081H30.1331Z" fill="black"/>
</g>
<defs>
<clipPath id="clip0_468_4924">
<rect width="63.53" height="57.9268" fill="white" transform="translate(0.255249 0.111938)"/>
</clipPath>
</defs>
</svg>
