<svg width="73" height="58" viewBox="0 0 73 58" fill="none" xmlns="http://www.w3.org/2000/svg">
<rect width="73" height="58" fill="#D6D6D6"/>
<g id="iPhone 16 Pro - 1" clip-path="url(#clip0_80_156)">
<rect width="402" height="3094" transform="translate(-69 -1148)" fill="black"/>
<rect id="Rectangle 8" x="-69.0615" y="-102.69" width="402.053" height="422.379" fill="#E8E1D6"/>
<g id="Group 47767">
<g id="free-shipping 1" clip-path="url(#clip1_80_156)">
<g id="icon">
<path id="Ellipse 42" d="M49.5613 45.3718C62.475 45.3718 72.9436 35.3164 72.9436 22.9125C72.9436 10.5085 62.475 0.453125 49.5613 0.453125C36.6476 0.453125 26.179 10.5085 26.179 22.9125C26.179 35.3164 36.6476 45.3718 49.5613 45.3718Z" fill="#D6BC97"/>
<g id="Group 49">
<path id="Path 93" d="M36.127 57.5774C35.9931 57.5865 35.8587 57.5704 35.7307 57.53L19.4061 52.2007C19.1626 52.1111 18.9521 51.9497 18.8025 51.7376C18.6529 51.5256 18.5714 51.2731 18.5687 51.0137V29.585C18.5657 29.325 18.6446 29.0707 18.7943 28.8581C18.9439 28.6455 19.1567 28.4854 19.4025 28.4005L35.7301 23.0693C35.8646 23.0218 36.0059 22.9962 36.1485 22.9937C36.2737 22.994 36.3976 23.0186 36.5134 23.0663L52.8478 28.3987C53.0912 28.4882 53.3016 28.6496 53.4512 28.8615C53.6007 29.0734 53.6824 29.3257 53.6853 29.585V50.9602C53.6882 51.2202 53.6093 51.4746 53.4596 51.6873C53.31 51.9 53.0972 52.0602 52.8515 52.1453L36.5232 57.5294C36.3953 57.57 36.2609 57.5863 36.127 57.5774ZM37.3619 35.8022V54.6675L43.0845 52.8215V45.6837C43.0772 45.5244 43.1023 45.3653 43.1583 45.216C43.2142 45.0667 43.2998 44.9302 43.4099 44.8149C43.5201 44.6995 43.6524 44.6077 43.799 44.5449C43.9455 44.482 44.1033 44.4496 44.2628 44.4494C44.4254 44.4476 44.5868 44.4783 44.7374 44.5397C44.888 44.601 45.0248 44.6919 45.1399 44.8069C45.2549 44.9218 45.3458 45.0586 45.4073 45.2092C45.4687 45.3598 45.4995 45.5211 45.4978 45.6837V51.9748L51.2203 50.1289V31.2599L37.3619 35.8022ZM21.0368 50.1264L34.697 54.6041H34.948V35.8016L29.2255 33.9557V43.7215C29.2255 44.0488 29.0954 44.3628 28.864 44.5943C28.6325 44.8258 28.3185 44.9558 27.9912 44.9558C27.6638 44.9558 27.3498 44.8258 27.1183 44.5943C26.8869 44.3628 26.7568 44.0488 26.7568 43.7215V33.109L21.0343 31.263L21.0368 50.1264ZM34.5056 28.7309C34.7609 28.7279 35.011 28.8029 35.2226 28.9458C35.4342 29.0887 35.597 29.2929 35.6895 29.5309C35.746 29.6832 35.7714 29.8453 35.7645 30.0076C35.7575 30.17 35.7182 30.3293 35.6488 30.4762C35.5795 30.6231 35.4815 30.7548 35.3606 30.8633C35.2398 30.9719 35.0984 31.0553 34.9449 31.1086L31.7877 32.2291L36.1276 33.6326L48.5048 29.585L36.127 25.5374L23.7497 29.585L28.0521 31.0003L34.1093 28.7925C34.2377 28.7528 34.3712 28.7321 34.5056 28.7309Z" fill="black"/>
<path id="Path 94" d="M1.96415 33.736C1.8016 33.7378 1.64033 33.7071 1.48979 33.6457C1.33926 33.5844 1.20249 33.4936 1.08752 33.3787C0.972543 33.2638 0.881677 33.127 0.820251 32.9765C0.758825 32.826 0.728075 32.6648 0.729806 32.5022C0.728076 32.3397 0.758822 32.1784 0.820241 32.0278C0.881661 31.8773 0.972516 31.7405 1.08748 31.6256C1.20245 31.5106 1.33921 31.4197 1.48975 31.3583C1.64028 31.2969 1.80157 31.2662 1.96415 31.2679H11.893C12.218 31.2821 12.5256 31.4184 12.7546 31.6494C12.9835 31.8805 13.1168 32.1895 13.128 32.5145C13.1283 32.6762 13.0965 32.8363 13.0344 32.9855C12.9723 33.1347 12.8811 33.2701 12.7662 33.3838C12.6513 33.4974 12.5149 33.5871 12.365 33.6476C12.2151 33.708 12.0546 33.7381 11.893 33.736H1.96415Z" fill="black"/>
<path id="Path 95" d="M1.96415 41.5333C1.8016 41.5351 1.64033 41.5045 1.48979 41.4431C1.33926 41.3818 1.20249 41.291 1.08752 41.176C0.972543 41.0611 0.881677 40.9244 0.820251 40.7739C0.758825 40.6234 0.728075 40.4621 0.729806 40.2996C0.728076 40.137 0.758822 39.9757 0.820241 39.8252C0.881661 39.6747 0.972517 39.5379 1.08748 39.4229C1.20245 39.308 1.33921 39.2171 1.48975 39.1557C1.64028 39.0943 1.80157 39.0635 1.96415 39.0653H11.893C12.2191 39.0696 12.5305 39.201 12.7611 39.4315C12.9916 39.6621 13.1231 39.9736 13.1274 40.2996C13.1292 40.4622 13.0985 40.6235 13.0371 40.7741C12.9757 40.9247 12.8849 41.0615 12.7699 41.1764C12.6549 41.2914 12.5181 41.3823 12.3675 41.4437C12.2169 41.5051 12.0556 41.5357 11.893 41.5339L1.96415 41.5333Z" fill="black"/>
<path id="Path 96" d="M1.96415 49.3314C1.80163 49.3331 1.64039 49.3024 1.4899 49.241C1.3394 49.1797 1.20267 49.0889 1.08771 48.974C0.972753 48.8591 0.881884 48.7224 0.820428 48.5719C0.758972 48.4214 0.728165 48.2602 0.729812 48.0977C0.728 47.9351 0.758686 47.7737 0.820068 47.6231C0.88145 47.4725 0.972293 47.3357 1.08727 47.2206C1.20224 47.1056 1.33903 47.0147 1.48961 46.9532C1.64019 46.8918 1.80152 46.861 1.96415 46.8627H11.893C12.2192 46.867 12.5307 46.9986 12.7613 47.2292C12.9919 47.4599 13.1232 47.7716 13.1274 48.0977C13.1292 48.2603 13.0985 48.4216 13.0371 48.5722C12.9757 48.7228 12.8849 48.8596 12.7699 48.9745C12.6549 49.0895 12.5181 49.1804 12.3675 49.2418C12.217 49.3032 12.0556 49.3339 11.893 49.332L1.96415 49.3314Z" fill="black"/>
</g>
</g>
</g>
</g>
</g>
<defs>
<clipPath id="clip0_80_156">
<rect width="402" height="3094" fill="white" transform="translate(-69 -1148)"/>
</clipPath>
<clipPath id="clip1_80_156">
<rect width="72.2139" height="57.1243" fill="white" transform="translate(0.729736 0.453125)"/>
</clipPath>
</defs>
</svg>
