<svg width="250" height="251" viewBox="0 0 250 251" fill="none" xmlns="http://www.w3.org/2000/svg">
<g clip-path="url(#clip0_393_225)">
<path d="M125 250.355C194.036 250.355 250 194.391 250 125.355C250 56.3198 194.036 0.355438 125 0.355438C55.9644 0.355438 0 56.3198 0 125.355C0 194.391 55.9644 250.355 125 250.355Z" fill="#D6BC97"/>
<path d="M125 247.921C192.691 247.921 247.565 193.046 247.565 125.355C247.565 57.6645 192.691 2.79007 125 2.79007C57.309 2.79007 2.43457 57.6645 2.43457 125.355C2.43457 193.046 57.309 247.921 125 247.921Z" fill="black"/>
<path d="M125 245.501C191.355 245.501 245.146 191.71 245.146 125.355C245.146 59.0008 191.355 5.20981 125 5.20981C58.6455 5.20981 4.85449 59.0008 4.85449 125.355C4.85449 191.71 58.6455 245.501 125 245.501Z" fill="url(#paint0_linear_393_225)"/>
<path d="M66.5585 109.265V109.83C65.9176 109.849 65.4321 109.92 65.1027 110.042C64.7729 110.165 64.5516 110.391 64.4385 110.721C64.3254 111.05 64.269 111.564 64.269 112.261V126.508C64.269 127.111 64.3207 127.568 64.4244 127.879C64.5277 128.19 64.7212 128.392 65.0039 128.486C65.2865 128.581 65.6916 128.628 66.2194 128.628H67.8306C68.8102 128.628 69.6397 128.392 70.3181 127.921C70.9965 127.45 71.5429 126.772 71.9575 125.886C72.3717 125 72.6545 123.926 72.8055 122.663H73.4557C73.3992 123.285 73.371 124.096 73.371 125.094C73.371 125.509 73.385 126.103 73.4134 126.875C73.4416 127.648 73.4932 128.449 73.5687 129.278C72.6077 129.24 71.5239 129.217 70.3181 129.207C69.1119 129.198 68.0377 129.193 67.0956 129.193H64.6646C63.6471 129.193 62.568 129.198 61.428 129.207C60.2876 129.217 59.2184 129.24 58.2197 129.278V128.713C58.8416 128.675 59.308 128.599 59.6189 128.486C59.9299 128.373 60.137 128.147 60.2407 127.808C60.3441 127.469 60.3962 126.96 60.3962 126.282V112.261C60.3962 111.564 60.3441 111.051 60.2407 110.721C60.137 110.391 59.9299 110.165 59.6189 110.042C59.308 109.92 58.8416 109.849 58.2197 109.83V109.265C58.6906 109.284 59.2939 109.303 60.0289 109.321C60.7637 109.34 61.5552 109.35 62.4032 109.35C63.1757 109.35 63.939 109.34 64.6929 109.321C65.4464 109.303 66.0682 109.284 66.5585 109.265Z" fill="#D6BC97"/>
<path d="M82.1619 114.268C83.4621 114.268 84.6163 114.527 85.6245 115.045C86.6324 115.564 87.4336 116.388 88.0273 117.519C88.6208 118.649 88.9176 120.138 88.9176 121.985C88.9176 123.832 88.6208 125.32 88.0273 126.451C87.4336 127.582 86.6324 128.401 85.6245 128.91C84.6161 129.419 83.4621 129.674 82.1619 129.674C80.8616 129.674 79.7026 129.419 78.685 128.91C77.6674 128.401 76.8663 127.582 76.2823 126.451C75.6979 125.32 75.406 123.832 75.406 121.985C75.406 120.138 75.6979 118.649 76.2823 117.519C76.8661 116.388 77.6674 115.564 78.685 115.045C79.7025 114.527 80.8615 114.268 82.1619 114.268ZM82.1619 114.833C81.2759 114.833 80.555 115.394 79.9994 116.515C79.4434 117.637 79.1655 119.46 79.1655 121.985C79.1655 124.51 79.4433 126.329 79.9994 127.441C80.555 128.553 81.2758 129.108 82.1619 129.108C83.0285 129.108 83.7449 128.553 84.3101 127.441C84.8755 126.329 85.1581 124.51 85.1581 121.985C85.1581 119.459 84.8755 117.637 84.3101 116.515C83.7448 115.394 83.0284 114.833 82.1619 114.833Z" fill="#D6BC97"/>
<path d="M100.168 114.268C100.752 114.268 101.237 114.391 101.624 114.636C102.01 114.881 102.297 115.192 102.486 115.568C102.674 115.946 102.769 116.341 102.769 116.756C102.769 117.378 102.585 117.896 102.217 118.31C101.85 118.725 101.364 118.932 100.762 118.932C100.196 118.932 99.7345 118.782 99.3766 118.48C99.0185 118.179 98.8395 117.764 98.8395 117.236C98.8395 116.765 98.957 116.37 99.1928 116.049C99.4282 115.729 99.6967 115.474 99.9985 115.286C99.7908 115.173 99.5555 115.135 99.2918 115.173C98.6886 115.229 98.1612 115.488 97.7088 115.95C97.2566 116.412 96.9032 116.958 96.6488 117.589C96.3945 118.221 96.2672 118.819 96.2672 119.384V126.366C96.2672 127.29 96.5026 127.907 96.974 128.218C97.4448 128.529 98.1328 128.684 99.0373 128.684V129.278C98.6036 129.259 97.9775 129.235 97.1576 129.207C96.3378 129.179 95.485 129.165 94.5993 129.165C93.8645 129.165 93.134 129.179 92.4086 129.207C91.683 129.235 91.1411 129.259 90.7833 129.278V128.684C91.4802 128.684 91.9748 128.543 92.2672 128.26C92.5592 127.977 92.7053 127.44 92.7053 126.649V117.745C92.7053 116.897 92.5685 116.27 92.2955 115.865C92.0221 115.46 91.5181 115.257 90.7832 115.257V114.664C91.3861 114.72 91.9705 114.748 92.5357 114.748C93.2326 114.748 93.897 114.716 94.5285 114.649C95.1596 114.583 95.7391 114.485 96.2668 114.352V117.292C96.4931 116.765 96.7897 116.275 97.1573 115.822C97.5248 115.37 97.9673 114.998 98.4858 114.706C99.004 114.414 99.5643 114.268 100.168 114.268L100.168 114.268Z" fill="#D6BC97"/>
<path d="M107.489 129.476C106.245 129.476 105.341 129.155 104.775 128.515C104.21 127.874 103.927 127.064 103.927 126.084C103.927 125.292 104.115 124.638 104.493 124.119C104.869 123.601 105.355 123.182 105.948 122.861C106.542 122.541 107.168 122.263 107.828 122.027C108.487 121.792 109.109 121.566 109.694 121.349C110.278 121.132 110.758 120.887 111.135 120.614C111.512 120.341 111.701 119.988 111.701 119.554V117.49C111.701 116.888 111.611 116.393 111.432 116.007C111.253 115.621 110.989 115.328 110.641 115.13C110.292 114.932 109.854 114.833 109.326 114.833C108.931 114.833 108.516 114.89 108.083 115.003C107.649 115.116 107.291 115.333 107.008 115.653C107.498 115.785 107.88 116.03 108.153 116.388C108.426 116.746 108.563 117.179 108.563 117.688C108.563 118.273 108.37 118.73 107.984 119.059C107.597 119.389 107.112 119.554 106.528 119.554C105.906 119.554 105.435 119.356 105.114 118.96C104.794 118.565 104.634 118.103 104.634 117.575C104.634 117.047 104.766 116.61 105.03 116.261C105.293 115.912 105.661 115.597 106.132 115.314C106.603 114.994 107.206 114.739 107.941 114.551C108.676 114.363 109.477 114.268 110.344 114.268C111.173 114.268 111.908 114.358 112.549 114.537C113.189 114.716 113.736 115.031 114.188 115.484C114.64 115.917 114.932 116.454 115.065 117.095C115.196 117.736 115.262 118.518 115.262 119.441V127.186C115.262 127.657 115.314 127.992 115.418 128.19C115.521 128.388 115.705 128.487 115.969 128.487C116.195 128.487 116.393 128.43 116.563 128.317C116.732 128.204 116.902 128.082 117.071 127.949L117.382 128.43C116.968 128.751 116.534 129.005 116.082 129.193C115.63 129.381 115.083 129.476 114.442 129.476C113.368 129.476 112.652 129.236 112.294 128.755C111.936 128.274 111.747 127.723 111.729 127.101C111.22 127.949 110.607 128.557 109.891 128.924C109.175 129.292 108.374 129.476 107.489 129.476H107.489ZM109.383 127.893C109.797 127.893 110.202 127.78 110.598 127.553C110.994 127.327 111.361 126.951 111.701 126.423V120.713C111.455 121.09 111.097 121.401 110.626 121.646C110.155 121.891 109.679 122.159 109.199 122.451C108.718 122.744 108.304 123.125 107.955 123.596C107.606 124.067 107.432 124.718 107.432 125.547C107.432 126.357 107.616 126.951 107.983 127.327C108.351 127.705 108.817 127.893 109.383 127.893L109.383 127.893Z" fill="#D6BC97"/>
<path d="M134.993 108.869C136.237 108.869 137.259 109.053 138.06 109.42C138.861 109.788 139.572 110.217 140.194 110.706C140.571 110.989 140.858 111.022 141.056 110.805C141.254 110.589 141.391 110.075 141.466 109.265H142.116C142.078 109.981 142.05 110.858 142.031 111.894C142.012 112.93 142.003 114.296 142.003 115.992H141.353C141.24 115.144 141.117 114.433 140.985 113.858C140.853 113.284 140.669 112.789 140.434 112.374C140.198 111.96 139.873 111.564 139.459 111.187C138.95 110.622 138.342 110.202 137.636 109.929C136.929 109.656 136.189 109.519 135.417 109.519C134.437 109.519 133.584 109.779 132.859 110.297C132.133 110.815 131.53 111.522 131.049 112.417C130.569 113.312 130.211 114.353 129.975 115.54C129.739 116.727 129.622 117.99 129.622 119.328C129.622 120.704 129.749 121.981 130.004 123.158C130.258 124.336 130.635 125.363 131.134 126.239C131.633 127.116 132.255 127.799 133 128.289C133.744 128.779 134.606 129.024 135.586 129.024C136.283 129.024 137 128.892 137.735 128.628C138.47 128.364 139.073 127.959 139.544 127.412C140.166 126.847 140.59 126.174 140.816 125.391C141.042 124.61 141.221 123.568 141.353 122.268H142.003C142.003 124.039 142.012 125.467 142.031 126.55C142.05 127.634 142.078 128.543 142.116 129.278H141.466C141.391 128.468 141.263 127.959 141.084 127.752C140.905 127.545 140.608 127.573 140.194 127.836C139.497 128.327 138.757 128.755 137.975 129.123C137.193 129.49 136.189 129.674 134.965 129.674C133.042 129.674 131.356 129.269 129.905 128.458C128.454 127.648 127.328 126.48 126.527 124.953C125.726 123.427 125.326 121.589 125.326 119.441C125.326 117.331 125.74 115.484 126.569 113.901C127.399 112.318 128.539 111.084 129.99 110.198C131.441 109.312 133.108 108.869 134.993 108.869L134.993 108.869Z" fill="#D6BC97"/>
<path d="M148.278 129.476C147.035 129.476 146.13 129.155 145.565 128.515C144.999 127.874 144.717 127.064 144.717 126.084C144.717 125.292 144.905 124.638 145.282 124.119C145.659 123.601 146.144 123.182 146.738 122.861C147.331 122.541 147.958 122.263 148.618 122.027C149.277 121.792 149.899 121.566 150.483 121.349C151.067 121.132 151.548 120.887 151.925 120.614C152.302 120.341 152.49 119.988 152.49 119.554V117.49C152.49 116.888 152.401 116.393 152.222 116.007C152.042 115.621 151.779 115.328 151.43 115.13C151.081 114.932 150.643 114.833 150.116 114.833C149.72 114.833 149.305 114.89 148.872 115.003C148.438 115.116 148.081 115.333 147.798 115.653C148.288 115.785 148.669 116.03 148.943 116.388C149.216 116.746 149.353 117.179 149.353 117.688C149.353 118.273 149.159 118.73 148.773 119.059C148.387 119.389 147.901 119.554 147.317 119.554C146.696 119.554 146.224 119.356 145.904 118.96C145.583 118.565 145.423 118.103 145.423 117.575C145.423 117.047 145.555 116.61 145.819 116.261C146.083 115.912 146.45 115.597 146.922 115.314C147.392 114.994 147.996 114.739 148.731 114.551C149.466 114.363 150.266 114.268 151.133 114.268C151.962 114.268 152.697 114.358 153.338 114.537C153.979 114.716 154.526 115.031 154.978 115.484C155.43 115.917 155.722 116.454 155.854 117.095C155.986 117.736 156.052 118.518 156.052 119.441V127.186C156.052 127.657 156.104 127.992 156.207 128.19C156.311 128.388 156.495 128.487 156.759 128.487C156.985 128.487 157.183 128.43 157.352 128.317C157.522 128.204 157.691 128.082 157.861 127.949L158.172 128.43C157.757 128.751 157.324 129.005 156.872 129.193C156.419 129.381 155.872 129.476 155.232 129.476C154.158 129.476 153.442 129.236 153.084 128.755C152.725 128.274 152.537 127.723 152.518 127.101C152.01 127.949 151.397 128.557 150.681 128.924C149.965 129.292 149.164 129.476 148.278 129.476ZM150.172 127.893C150.587 127.893 150.992 127.78 151.388 127.553C151.783 127.327 152.151 126.951 152.49 126.423V120.713C152.245 121.09 151.887 121.401 151.416 121.646C150.945 121.891 150.469 122.159 149.988 122.451C149.508 122.744 149.093 123.125 148.745 123.596C148.396 124.067 148.222 124.718 148.222 125.547C148.222 126.357 148.405 126.951 148.773 127.327C149.14 127.705 149.607 127.893 150.172 127.893L150.172 127.893Z" fill="#D6BC97"/>
<path d="M164.39 114.268C165.182 114.268 165.86 114.381 166.425 114.607C166.991 114.833 167.405 115.031 167.669 115.201C168.31 115.672 168.696 115.37 168.828 114.296H169.45C169.412 114.843 169.384 115.488 169.365 116.233C169.346 116.977 169.337 117.971 169.337 119.215H168.715C168.621 118.518 168.442 117.839 168.178 117.18C167.914 116.52 167.528 115.969 167.019 115.526C166.51 115.083 165.841 114.862 165.012 114.862C164.428 114.862 163.942 115.031 163.556 115.37C163.17 115.71 162.977 116.19 162.977 116.812C162.977 117.377 163.147 117.872 163.486 118.296C163.825 118.72 164.263 119.116 164.8 119.483C165.337 119.851 165.898 120.251 166.482 120.685C167.481 121.382 168.324 122.084 169.012 122.79C169.7 123.497 170.044 124.416 170.044 125.546C170.044 126.413 169.803 127.153 169.323 127.765C168.842 128.378 168.211 128.849 167.429 129.179C166.647 129.508 165.785 129.674 164.842 129.674C164.334 129.674 163.872 129.626 163.457 129.532C163.043 129.438 162.675 129.315 162.355 129.165C162.11 129.033 161.888 128.91 161.691 128.797C161.493 128.684 161.29 128.59 161.083 128.515C160.894 128.42 160.729 128.458 160.588 128.628C160.447 128.797 160.338 129.08 160.263 129.476H159.641C159.679 128.873 159.707 128.138 159.726 127.271C159.744 126.404 159.754 125.255 159.754 123.822H160.376C160.508 124.859 160.71 125.768 160.984 126.55C161.257 127.332 161.657 127.945 162.185 128.387C162.713 128.83 163.391 129.052 164.22 129.052C164.729 129.052 165.219 128.882 165.69 128.543C166.161 128.204 166.397 127.629 166.397 126.818C166.397 125.989 166.115 125.302 165.549 124.755C164.984 124.209 164.277 123.624 163.429 123.002C162.788 122.532 162.19 122.07 161.634 121.617C161.078 121.165 160.626 120.656 160.277 120.091C159.928 119.526 159.754 118.857 159.754 118.084C159.754 117.236 159.971 116.534 160.404 115.978C160.838 115.422 161.408 114.998 162.115 114.706C162.821 114.414 163.58 114.268 164.39 114.268V114.268Z" fill="#D6BC97"/>
<path d="M177.309 114.268C178.1 114.268 178.778 114.381 179.344 114.607C179.909 114.833 180.323 115.031 180.587 115.201C181.228 115.672 181.614 115.37 181.746 114.296H182.368C182.33 114.843 182.302 115.488 182.283 116.233C182.265 116.977 182.255 117.971 182.255 119.215H181.633C181.539 118.518 181.36 117.839 181.096 117.18C180.832 116.52 180.446 115.969 179.937 115.526C179.428 115.083 178.759 114.862 177.93 114.862C177.346 114.862 176.861 115.031 176.475 115.37C176.088 115.71 175.895 116.19 175.895 116.812C175.895 117.377 176.065 117.872 176.404 118.296C176.743 118.72 177.181 119.116 177.718 119.483C178.256 119.851 178.816 120.251 179.4 120.685C180.399 121.382 181.242 122.084 181.93 122.79C182.618 123.497 182.962 124.416 182.962 125.546C182.962 126.413 182.722 127.153 182.241 127.765C181.761 128.378 181.129 128.849 180.347 129.179C179.565 129.508 178.703 129.674 177.761 129.674C177.252 129.674 176.79 129.626 176.375 129.532C175.961 129.438 175.593 129.315 175.273 129.165C175.028 129.033 174.807 128.91 174.609 128.797C174.411 128.684 174.208 128.59 174.001 128.515C173.812 128.42 173.648 128.458 173.506 128.628C173.365 128.797 173.256 129.08 173.181 129.476H172.559C172.597 128.873 172.625 128.138 172.644 127.271C172.663 126.404 172.672 125.255 172.672 123.822H173.294C173.426 124.859 173.629 125.768 173.902 126.55C174.175 127.332 174.576 127.945 175.104 128.387C175.631 128.83 176.309 129.052 177.139 129.052C177.648 129.052 178.137 128.882 178.609 128.543C179.08 128.204 179.315 127.629 179.315 126.818C179.315 125.989 179.033 125.302 178.467 124.755C177.902 124.209 177.195 123.624 176.347 123.002C175.706 122.532 175.108 122.07 174.552 121.617C173.996 121.165 173.544 120.656 173.196 120.091C172.847 119.526 172.673 118.857 172.673 118.084C172.673 117.236 172.889 116.534 173.323 115.978C173.756 115.422 174.326 114.998 175.033 114.706C175.74 114.414 176.498 114.268 177.309 114.268V114.268Z" fill="#D6BC97"/>
<path d="M190.311 114.353V126.649C190.311 127.44 190.457 127.977 190.749 128.26C191.041 128.543 191.536 128.684 192.233 128.684V129.278C191.894 129.259 191.376 129.235 190.679 129.207C189.981 129.179 189.275 129.165 188.559 129.165C187.861 129.165 187.155 129.179 186.438 129.207C185.722 129.235 185.185 129.259 184.827 129.278V128.684C185.524 128.684 186.019 128.543 186.311 128.26C186.603 127.978 186.749 127.441 186.749 126.649V117.773C186.749 116.907 186.612 116.271 186.339 115.865C186.066 115.46 185.562 115.257 184.827 115.257V114.664C185.43 114.72 186.014 114.749 186.58 114.749C187.277 114.749 187.941 114.716 188.573 114.65C189.204 114.584 189.783 114.485 190.311 114.353L190.311 114.353ZM188.333 107.456C189.011 107.456 189.566 107.644 190 108.021C190.433 108.398 190.65 108.897 190.65 109.519C190.65 110.141 190.433 110.641 190 111.017C189.566 111.395 189.011 111.583 188.333 111.583C187.654 111.583 187.098 111.395 186.665 111.017C186.231 110.641 186.015 110.141 186.015 109.519C186.015 108.897 186.231 108.398 186.665 108.021C187.098 107.644 187.654 107.456 188.333 107.456Z" fill="#D6BC97"/>
<path d="M88.1989 141.552C88.2151 141.571 88.2314 141.589 88.2476 141.605L88.2601 141.52C88.2401 141.531 88.2201 141.542 88.1989 141.552ZM90.6851 144.187C90.3814 143.876 89.9776 143.72 89.4751 143.72C88.9089 143.72 88.4064 143.876 87.9689 144.187C87.5314 144.5 87.1639 144.899 86.8689 145.385C86.5726 145.87 86.3476 146.382 86.1939 146.921C86.0401 147.461 85.9639 147.952 85.9639 148.399C85.9639 149.039 86.1151 149.516 86.4189 149.832C86.7226 150.149 87.1264 150.306 87.6289 150.306C88.1951 150.306 88.6976 150.15 89.1351 149.839C89.5726 149.526 89.9389 149.127 90.2351 148.641C90.5301 148.155 90.7551 147.642 90.9101 147.104C91.0639 146.565 91.1401 146.074 91.1401 145.627C91.1401 144.98 90.9889 144.5 90.6851 144.187ZM89.9739 146.375C89.8926 146.841 89.7789 147.292 89.6339 147.73C89.4876 148.167 89.3139 148.562 89.1114 148.915C88.9089 149.267 88.6876 149.546 88.4489 149.754C88.2101 149.96 87.9601 150.064 87.7014 150.064C87.4739 150.064 87.3026 149.977 87.1851 149.807C87.0676 149.637 87.0089 149.37 87.0089 149.006C87.0089 148.576 87.0489 148.127 87.1301 147.657C87.2114 147.187 87.3264 146.734 87.4764 146.296C87.6264 145.859 87.8001 145.464 87.9989 145.111C88.1976 144.759 88.4164 144.479 88.6551 144.272C88.8939 144.066 89.1426 143.962 89.4026 143.962C89.6376 143.962 89.8114 144.046 89.9251 144.211C90.0389 144.377 90.0951 144.647 90.0951 145.02C90.0951 145.457 90.0551 145.909 89.9739 146.375ZM103.341 143.992C103.083 143.811 102.774 143.72 102.418 143.72C101.851 143.72 101.34 143.877 100.886 144.194C100.433 144.51 100.048 144.916 99.7326 145.415C99.4164 145.912 99.1726 146.437 99.0026 146.989C98.8326 147.54 98.7476 148.05 98.7476 148.52C98.7476 149.111 98.8939 149.557 99.1851 149.856C99.4764 150.156 99.8664 150.306 100.353 150.306C100.7 150.306 101.03 150.227 101.343 150.069C101.654 149.911 101.936 149.706 102.188 149.455C102.438 149.205 102.64 148.945 102.795 148.677L102.551 148.581C102.244 149.035 101.936 149.35 101.628 149.529C101.32 149.706 101.02 149.796 100.729 149.796C100.478 149.796 100.273 149.705 100.115 149.522C99.9576 149.34 99.8776 149.042 99.8776 148.629C99.8776 148.014 99.9526 147.426 100.103 146.867C100.253 146.307 100.453 145.81 100.704 145.372C100.955 144.935 101.233 144.59 101.536 144.339C101.84 144.089 102.146 143.962 102.454 143.962C102.665 143.962 102.835 143.997 102.965 144.066C103.094 144.135 103.2 144.226 103.281 144.339C103.045 144.38 102.835 144.484 102.649 144.649C102.463 144.815 102.369 145.016 102.369 145.251C102.369 145.38 102.41 145.492 102.491 145.585C102.571 145.679 102.698 145.725 102.868 145.725C103.045 145.725 103.2 145.676 103.329 145.579C103.459 145.481 103.558 145.359 103.628 145.209C103.696 145.059 103.73 144.906 103.73 144.752C103.73 144.429 103.601 144.175 103.341 143.992ZM118.344 144.187C118.04 143.876 117.638 143.72 117.135 143.72C116.568 143.72 116.065 143.876 115.628 144.187C115.19 144.5 114.824 144.899 114.528 145.385C114.233 145.87 114.008 146.382 113.854 146.921C113.7 147.461 113.623 147.952 113.623 148.399C113.623 149.039 113.775 149.516 114.079 149.832C114.383 150.149 114.785 150.306 115.288 150.306C115.855 150.306 116.358 150.15 116.795 149.839C117.233 149.526 117.599 149.127 117.894 148.641C118.19 148.155 118.415 147.642 118.569 147.104C118.723 146.565 118.8 146.074 118.8 145.627C118.8 144.98 118.648 144.5 118.344 144.187ZM117.633 146.375C117.553 146.841 117.439 147.292 117.293 147.73C117.148 148.167 116.973 148.562 116.77 148.915C116.568 149.267 116.346 149.546 116.108 149.754C115.869 149.96 115.62 150.064 115.36 150.064C115.134 150.064 114.961 149.977 114.844 149.807C114.726 149.637 114.668 149.37 114.668 149.006C114.668 148.576 114.709 148.127 114.789 147.657C114.87 147.187 114.985 146.734 115.136 146.296C115.285 145.859 115.46 145.464 115.658 145.111C115.856 144.759 116.075 144.479 116.314 144.272C116.554 144.066 116.803 143.962 117.063 143.962C117.296 143.962 117.471 144.046 117.584 144.211C117.698 144.377 117.755 144.647 117.755 145.02C117.755 145.457 117.714 145.909 117.633 146.375Z" fill="white"/>
<path d="M125.193 141.496C125.193 141.699 125.115 141.889 124.961 142.066C124.808 142.245 124.613 142.334 124.378 142.334C124.224 142.334 124.103 142.297 124.013 142.225C123.924 142.152 123.884 142.051 123.891 141.921C123.891 141.719 123.956 141.546 124.086 141.405C124.215 141.262 124.381 141.164 124.584 141.106C124.584 141.034 124.531 140.967 124.426 140.906C124.321 140.845 124.188 140.815 124.025 140.815C123.871 140.815 123.738 140.847 123.624 140.912C123.51 140.977 123.41 141.05 123.32 141.131C123.101 141.334 122.924 141.692 122.785 142.206C122.648 142.721 122.498 143.279 122.336 143.877L122.333 143.89H123.77L123.698 144.132H122.268L120.088 152.251C119.894 152.259 119.703 152.275 119.516 152.299C119.33 152.324 119.156 152.364 118.994 152.421L121.21 144.132H120.113L120.185 143.89H121.275L121.279 143.877C121.449 143.23 121.629 142.695 121.82 142.274C122.01 141.852 122.243 141.507 122.519 141.24C122.705 141.054 122.934 140.906 123.205 140.796C123.476 140.687 123.754 140.632 124.038 140.632C124.41 140.632 124.695 140.716 124.894 140.882C125.093 141.047 125.193 141.252 125.193 141.496Z" fill="white"/>
<path d="M109.685 148.167L109.381 149.055C109.203 149.565 108.976 149.901 108.701 150.064C108.425 150.225 108.161 150.306 107.911 150.306C107.586 150.306 107.36 150.234 107.23 150.087C107.101 149.941 107.046 149.739 107.066 149.48C107.086 149.221 107.149 148.929 107.255 148.605L108.409 145.129C108.45 145.007 108.486 144.866 108.519 144.704C108.551 144.542 108.545 144.402 108.5 144.285C108.455 144.167 108.336 144.109 108.141 144.109C107.883 144.109 107.608 144.25 107.315 144.534C107.024 144.817 106.728 145.216 106.429 145.731C106.129 146.245 105.839 146.855 105.559 147.56C105.416 147.921 105.279 148.301 105.148 148.701L104.726 150.136H103.67L106.076 142.03C106.156 141.755 106.146 141.552 106.045 141.422C105.944 141.294 105.695 141.229 105.298 141.229L105.371 140.972C105.816 140.965 106.218 140.919 106.574 140.834C106.93 140.749 107.259 140.629 107.559 140.475L105.779 146.547C105.835 146.417 105.893 146.294 105.949 146.175C106.228 145.582 106.505 145.107 106.781 144.746C107.056 144.386 107.34 144.125 107.631 143.962C107.923 143.801 108.226 143.72 108.543 143.72C108.924 143.72 109.185 143.811 109.326 143.992C109.469 144.175 109.531 144.409 109.515 144.691C109.499 144.975 109.443 145.262 109.345 145.555L108.166 149.104C108.101 149.314 108.073 149.492 108.081 149.637C108.089 149.784 108.183 149.856 108.36 149.856C108.514 149.856 108.666 149.771 108.816 149.601C108.966 149.431 109.126 149.104 109.296 148.617L109.454 148.167H109.685Z" fill="white"/>
<path d="M97.7025 148.167H97.9337L97.63 149.055C97.4512 149.565 97.225 149.901 96.9487 150.064C96.6737 150.225 96.41 150.306 96.1587 150.306C96.03 150.306 95.9075 150.277 95.795 150.221C95.6812 150.165 95.5962 150.084 95.54 149.977C95.475 149.84 95.4525 149.666 95.4725 149.455C95.4925 149.245 95.5475 148.961 95.6362 148.605L96.0187 147.094C95.8837 147.42 95.7537 147.716 95.625 147.985C95.3575 148.544 95.0912 148.994 94.8287 149.334C94.565 149.674 94.2975 149.921 94.0262 150.075C93.755 150.229 93.4737 150.306 93.1812 150.306C92.6475 150.306 92.3275 150.13 92.2212 149.777C92.1162 149.425 92.1525 148.99 92.3312 148.471L93.51 144.922C93.5912 144.68 93.62 144.494 93.595 144.364C93.5712 144.234 93.4775 144.169 93.315 144.169C93.1612 144.169 93.01 144.254 92.86 144.425C92.71 144.595 92.55 144.922 92.38 145.409L92.2212 145.859H91.9912L92.295 144.971C92.4725 144.461 92.7 144.125 92.975 143.962C93.2512 143.801 93.5137 143.72 93.765 143.72C94.1212 143.72 94.3587 143.802 94.4762 143.969C94.5937 144.135 94.6375 144.347 94.61 144.606C94.5812 144.866 94.5187 145.137 94.4212 145.421L93.2675 148.896C93.04 149.577 93.1287 149.917 93.5337 149.917C93.7775 149.917 94.0387 149.781 94.3187 149.51C94.5975 149.239 94.8787 148.856 95.1625 148.361C95.4462 147.867 95.7212 147.282 95.9887 146.606C96.2425 145.965 96.47 145.262 96.6737 144.5L96.8275 143.89C97.03 143.881 97.2262 143.865 97.4175 143.841C97.6075 143.816 97.78 143.776 97.9337 143.72L96.4262 149.104C96.37 149.322 96.3437 149.502 96.3475 149.644C96.3512 149.786 96.435 149.856 96.5962 149.856C96.775 149.856 96.9387 149.761 97.0887 149.571C97.2387 149.381 97.3912 149.062 97.545 148.617L97.7025 148.167Z" fill="white"/>
<path d="M89.0376 140.791C89.0376 140.977 88.9838 141.145 88.8738 141.295C88.7651 141.445 88.6288 141.569 88.4663 141.666C88.2638 141.795 88.0026 141.895 87.6826 141.964C87.3626 142.032 86.9838 142.066 86.5463 142.066C86.1263 142.066 85.7126 142.04 85.3038 141.989L83.5088 148.726C83.3788 149.196 83.3701 149.504 83.4838 149.65C83.5976 149.796 83.9101 149.877 84.4201 149.892L84.3713 150.136C84.1601 150.12 83.8926 150.11 83.5688 150.106C83.2451 150.101 82.9088 150.1 82.5601 150.1C82.2113 150.1 81.8776 150.101 81.5576 150.106C81.2376 150.11 80.9813 150.12 80.7863 150.136L80.8351 149.892C81.1751 149.877 81.4401 149.835 81.6313 149.765C81.8213 149.696 81.9713 149.579 82.0801 149.412C82.1901 149.247 82.2888 149.017 82.3788 148.726L84.2113 141.837C84.1088 141.822 84.0063 141.809 83.9038 141.794C83.4776 141.732 83.0588 141.702 82.6463 141.702C82.3951 141.702 82.1376 141.715 81.8738 141.739C81.6101 141.762 81.4138 141.82 81.2851 141.909C81.3488 141.99 81.4026 142.097 81.4426 142.231C81.4826 142.365 81.5038 142.492 81.5038 142.614C81.5038 142.776 81.4551 142.934 81.3576 143.087C81.2601 143.241 81.1063 143.319 80.8963 143.319C80.7176 143.319 80.5838 143.262 80.4951 143.149C80.4051 143.035 80.3613 142.889 80.3613 142.711C80.3613 142.549 80.4051 142.381 80.4951 142.206C80.5838 142.032 80.7538 141.885 81.0051 141.762C81.1913 141.674 81.3913 141.609 81.6063 141.569C81.8213 141.529 82.0238 141.504 82.2138 141.496C82.4051 141.487 82.5438 141.484 82.6338 141.484C83.1201 141.484 83.5776 141.512 84.0063 141.569C84.4363 141.625 84.8638 141.682 85.2888 141.739C85.7138 141.795 86.1613 141.824 86.6313 141.824C87.0038 141.824 87.3188 141.801 87.5738 141.757C87.8038 141.717 88.0126 141.649 88.1988 141.552C88.2151 141.571 88.2313 141.589 88.2476 141.605L88.2601 141.52C88.2401 141.531 88.2201 141.542 88.1988 141.552C88.1338 141.481 88.0726 141.395 88.0113 141.295C87.9338 141.17 87.8951 141.03 87.8951 140.876C87.8951 140.714 87.9438 140.562 88.0413 140.42C88.1388 140.279 88.2888 140.207 88.4913 140.207C88.6776 140.207 88.8151 140.264 88.9038 140.377C88.9938 140.491 89.0376 140.629 89.0376 140.791Z" fill="white"/>
<path d="M136.748 137.34C136.748 137.413 136.657 137.645 136.474 138.034C136.401 138.205 136.329 138.382 136.256 138.565L132.574 148.601C132.355 149.199 132.245 149.521 132.245 149.57C132.245 149.814 132.446 149.93 132.847 149.917H134.141C134.311 149.917 134.396 149.962 134.396 150.051C134.396 150.12 134.317 150.154 134.159 150.154H128.435C128.29 150.154 128.217 150.12 128.217 150.051C128.217 149.962 128.368 149.917 128.672 149.917H129.62C130.021 149.917 130.313 149.808 130.495 149.589C130.592 149.467 130.732 149.163 130.914 148.676L133.703 141.136C134.25 139.663 134.524 138.823 134.524 138.616C134.524 138.385 134.39 138.269 134.123 138.269C134.001 138.269 133.679 138.318 133.157 138.415C133.023 138.44 132.913 138.452 132.828 138.452C132.694 138.452 132.628 138.409 132.628 138.324C132.628 138.239 132.938 138.142 133.558 138.032C134.773 137.814 135.763 137.552 136.529 137.248C136.565 137.236 136.602 137.224 136.638 137.212C136.711 137.212 136.748 137.255 136.748 137.34H136.748ZM147.448 139.658C147.448 140.498 147.066 141.234 146.3 141.867C146.215 141.94 145.546 142.341 144.295 143.071L144.076 143.199C144.635 144.051 144.969 144.593 145.079 144.824C145.382 145.432 145.534 146.041 145.534 146.649C145.534 147.696 145.127 148.575 144.313 149.287C143.499 149.999 142.49 150.355 141.287 150.355C140.388 150.355 139.677 150.142 139.154 149.716C138.632 149.29 138.37 148.718 138.37 148C138.37 147.002 138.802 146.108 139.665 145.317C139.908 145.098 140.169 144.903 140.448 144.733C141.287 144.258 141.816 143.954 142.034 143.82L142.362 143.619C142.326 143.571 142.277 143.497 142.217 143.4L141.779 142.707C141.269 141.903 141.014 141.173 141.014 140.516C141.014 139.64 141.381 138.873 142.116 138.216C142.852 137.559 143.712 137.23 144.696 137.23C145.51 137.23 146.148 137.425 146.61 137.814C147.169 138.289 147.448 138.903 147.448 139.658ZM143.93 147.083C143.93 146.583 143.836 146.114 143.648 145.675C143.459 145.237 143.104 144.646 142.581 143.902C140.6 145.084 139.61 146.431 139.61 147.942C139.61 148.588 139.768 149.097 140.084 149.469C140.4 149.841 140.837 150.027 141.397 150.027C142.101 150.027 142.7 149.74 143.192 149.167C143.684 148.595 143.93 147.9 143.93 147.083ZM146.3 139.461C146.3 138.168 145.729 137.522 144.587 137.522C143.991 137.522 143.48 137.754 143.055 138.217C142.63 138.68 142.417 139.241 142.417 139.9C142.417 140.79 142.879 141.784 143.803 142.881C144.58 142.43 145.191 141.897 145.635 141.281C146.078 140.665 146.3 140.058 146.3 139.461V139.461ZM157 139.658C157 140.498 156.618 141.234 155.852 141.867C155.767 141.94 155.098 142.341 153.847 143.071L153.628 143.199C154.187 144.051 154.521 144.593 154.631 144.824C154.934 145.432 155.086 146.041 155.086 146.649C155.086 147.696 154.679 148.575 153.865 149.287C153.051 149.999 152.042 150.355 150.839 150.355C149.94 150.355 149.229 150.142 148.706 149.716C148.184 149.29 147.922 148.718 147.922 148C147.922 147.002 148.354 146.108 149.217 145.317C149.46 145.098 149.721 144.903 150 144.733C150.839 144.258 151.368 143.954 151.586 143.82L151.914 143.619C151.878 143.571 151.829 143.497 151.769 143.4L151.331 142.707C150.821 141.903 150.566 141.173 150.566 140.516C150.566 139.64 150.933 138.873 151.668 138.216C152.404 137.559 153.264 137.23 154.248 137.23C155.062 137.23 155.7 137.425 156.162 137.814C156.721 138.289 157 138.903 157 139.658ZM153.482 147.083C153.482 146.583 153.388 146.114 153.2 145.675C153.011 145.237 152.656 144.646 152.133 143.902C150.152 145.084 149.162 146.431 149.162 147.942C149.162 148.588 149.32 149.097 149.636 149.469C149.952 149.841 150.389 150.027 150.948 150.027C151.653 150.027 152.252 149.74 152.744 149.167C153.236 148.595 153.482 147.9 153.482 147.083ZM155.852 139.461C155.852 138.168 155.28 137.522 154.138 137.522C153.543 137.522 153.032 137.754 152.607 138.217C152.182 138.68 151.969 139.241 151.969 139.9C151.969 140.79 152.431 141.784 153.355 142.881C154.132 142.43 154.743 141.897 155.186 141.281C155.63 140.665 155.852 140.058 155.852 139.461V139.461ZM166.789 140.675C166.789 142.158 166.43 143.677 165.714 145.232C165.021 146.715 164.146 147.937 163.089 148.896C161.983 149.905 160.901 150.409 159.844 150.409C159.078 150.409 158.465 150.078 158.003 149.416C157.541 148.754 157.31 147.876 157.31 146.782C157.31 144.838 158.13 142.693 159.771 140.347C161.193 138.318 162.706 137.303 164.31 137.303C165.088 137.303 165.695 137.601 166.133 138.196C166.57 138.792 166.789 139.618 166.789 140.675ZM165.458 139.197C165.458 138.129 165.046 137.595 164.222 137.595C163.022 137.595 161.792 138.954 160.532 141.672C159.962 142.922 159.483 144.269 159.096 145.713C158.865 146.587 158.75 147.424 158.75 148.225C158.75 149.463 159.192 150.081 160.077 150.081C160.78 150.081 161.407 149.724 161.959 149.008C162.51 148.292 163.161 146.993 163.913 145.112C164.943 142.528 165.458 140.556 165.458 139.197ZM170.849 138.538C170.849 139.156 170.617 139.771 170.154 140.382C169.691 140.994 169.05 141.502 168.23 141.905L168.141 141.656C168.699 141.312 169.144 140.937 169.477 140.534C169.81 140.13 169.994 139.726 170.029 139.322C169.887 139.441 169.738 139.545 169.584 139.634C169.429 139.723 169.269 139.768 169.103 139.768C168.651 139.768 168.426 139.56 168.426 139.144C168.426 138.883 168.506 138.627 168.666 138.378C168.827 138.128 169.032 137.918 169.281 137.745C169.53 137.573 169.791 137.487 170.065 137.487C170.338 137.487 170.537 137.594 170.662 137.808C170.786 138.021 170.849 138.265 170.849 138.538Z" fill="#D6BC97"/>
</g>
<defs>
<linearGradient id="paint0_linear_393_225" x1="4.85449" y1="125.355" x2="245.146" y2="125.355" gradientUnits="userSpaceOnUse">
<stop stop-color="#414042"/>
<stop offset="0.067" stop-color="#373638" stop-opacity="0.855"/>
<stop offset="0.276" stop-color="#1F1E1F" stop-opacity="0.48"/>
<stop offset="0.495" stop-color="#0D0D0D" stop-opacity="0.211"/>
<stop offset="0.729" stop-color="#030303" stop-opacity="0.052"/>
<stop offset="1" stop-opacity="0"/>
</linearGradient>
<clipPath id="clip0_393_225">
<rect width="250" height="250" fill="white" transform="translate(0 0.355438)"/>
</clipPath>
</defs>
</svg>
