<svg width="62" height="58" viewBox="0 0 62 58" fill="none" xmlns="http://www.w3.org/2000/svg">
<g clip-path="url(#clip0_468_4915)">
<path d="M37.9236 47.3393C50.9651 47.3393 61.5373 36.7671 61.5373 23.7256C61.5373 10.6841 50.9651 0.111938 37.9236 0.111938C24.8821 0.111938 14.3099 10.6841 14.3099 23.7256C14.3099 36.7671 24.8821 47.3393 37.9236 47.3393Z" fill="#D6BC97"/>
<path d="M34.3318 25.867L18.4602 21.251C18.224 21.1808 17.9725 21.1808 17.7362 21.251L1.86463 25.867C1.6029 25.9463 1.37376 26.1079 1.21127 26.3279C1.04878 26.5478 0.961628 26.8144 0.96278 27.0878V40.9455C0.96278 53.0079 17.1081 57.1794 17.7997 57.3508C18.0082 57.4036 18.2269 57.4014 18.4343 57.3444C19.4248 57.0966 35.2459 52.894 35.2459 40.9455V27.0878C35.2459 26.8131 35.1568 26.5458 34.992 26.3261C34.8271 26.1063 34.5955 25.9459 34.3318 25.869V25.867ZM32.7067 40.9455C32.7067 50.215 20.2374 54.2144 18.1044 54.8051C15.972 54.2144 3.50206 50.2338 3.50206 40.9455V28.0447L18.107 23.7884L32.7093 28.0356L32.7067 40.9455Z" fill="black"/>
<path d="M16.8344 31.359V32.6859C15.8987 32.8513 15.0585 33.3604 14.4788 34.1135C13.8992 34.8665 13.6219 35.809 13.7015 36.756C13.7811 37.7029 14.2117 38.5859 14.9089 39.2317C15.6061 39.8774 16.5195 40.2393 17.4698 40.2461H19.3744C19.5435 40.2423 19.7117 40.2723 19.8691 40.3344C20.0265 40.3965 20.1699 40.4894 20.2908 40.6077C20.4118 40.726 20.5079 40.8672 20.5736 41.0232C20.6392 41.1791 20.673 41.3466 20.673 41.5158C20.673 41.685 20.6392 41.8524 20.5736 42.0084C20.5079 42.1643 20.4118 42.3056 20.2908 42.4239C20.1699 42.5421 20.0265 42.635 19.8691 42.6971C19.7117 42.7592 19.5435 42.7892 19.3744 42.7854H15.5651C15.2334 42.7929 14.9177 42.93 14.6857 43.1672C14.4537 43.4045 14.3238 43.7232 14.3238 44.0551C14.3238 44.3869 14.4537 44.7056 14.6857 44.9429C14.9177 45.1802 15.2334 45.3172 15.5651 45.3247H16.8351V46.5947C16.8313 46.7638 16.8613 46.932 16.9234 47.0894C16.9855 47.2468 17.0784 47.3902 17.1967 47.5111C17.3149 47.6321 17.4562 47.7282 17.6121 47.7939C17.7681 47.8595 17.9355 47.8933 18.1047 47.8933C18.2739 47.8933 18.4414 47.8595 18.5973 47.7939C18.7533 47.7282 18.8945 47.6321 19.0128 47.5111C19.1311 47.3902 19.224 47.2468 19.2861 47.0894C19.3482 46.932 19.3782 46.7638 19.3744 46.5947V45.326C20.3846 45.326 21.3535 44.9247 22.0679 44.2103C22.7823 43.4959 23.1836 42.527 23.1836 41.5167C23.1836 40.5065 22.7823 39.5376 22.0679 38.8232C21.3535 38.1088 20.3846 37.7075 19.3744 37.7075H17.4698C17.3006 37.7113 17.1324 37.6813 16.975 37.6192C16.8176 37.5571 16.6743 37.4642 16.5533 37.3459C16.4323 37.2277 16.3362 37.0864 16.2706 36.9305C16.2049 36.7745 16.1711 36.6071 16.1711 36.4379C16.1711 36.2687 16.2049 36.1012 16.2706 35.9453C16.3362 35.7893 16.4323 35.6481 16.5533 35.5298C16.6743 35.4115 16.8176 35.3186 16.975 35.2565C17.1324 35.1944 17.3006 35.1644 17.4698 35.1682H21.279C21.6108 35.1607 21.9264 35.0237 22.1584 34.7864C22.3904 34.5491 22.5203 34.2304 22.5203 33.8986C22.5203 33.5667 22.3904 33.2481 22.1584 33.0108C21.9264 32.7735 21.6108 32.6364 21.279 32.629H19.3744V31.359C19.3782 31.1898 19.3482 31.0216 19.2861 30.8643C19.224 30.7069 19.1311 30.5635 19.0128 30.4425C18.8945 30.3215 18.7533 30.2254 18.5973 30.1598C18.4414 30.0942 18.2739 30.0604 18.1047 30.0604C17.9355 30.0604 17.7681 30.0942 17.6121 30.1598C17.4562 30.2254 17.3149 30.3215 17.1967 30.4425C17.0784 30.5635 16.9855 30.7069 16.9234 30.8643C16.8613 31.0216 16.8313 31.1898 16.8351 31.359H16.8344Z" fill="black"/>
</g>
<defs>
<clipPath id="clip0_468_4915">
<rect width="60.5746" height="57.2764" fill="white" transform="translate(0.962769 0.111938)"/>
</clipPath>
</defs>
</svg>
